<?xml version="1.0" encoding="UTF-8"?> <svg xmlns="http://www.w3.org/2000/svg" xmlns:v="https://vecta.io/nano" width="586" height="344" fill="none"><style><![CDATA[.B{fill:#fff}.C{fill:#1370e7}.D{stroke:#00de98}.E{stroke-linejoin:round}.F{fill:#0059d1}.G{stroke-width:2.816}.H{fill:#00de98}.I{stroke-width:3.739}]]></style><path opacity=".003" d="M453.509 171.903S404.018 84.899 295.47 64.995c-113.821-20.872-125.761 33.537-120.854 50.12s22.257 28.156 11.204 37.856-38.028 37.137-.784 98.08 157.52 127.726 246.244 72.123c75.539-47.339 40.782-117.135 22.229-151.27zm10.111-36.184c-45.585-32.776-67.615-80.083-49.206-105.671 18.415-25.578 70.296-19.75 115.882 13.023s67.613 80.088 49.203 105.673-70.293 19.75-115.879-13.025zm42.12 98.986c-21.401-13.557-32.576-34.283-24.963-46.293s31.141-10.758 52.541 2.8 32.577 34.281 24.962 46.291-31.137 10.757-52.54-2.798z" class="C"></path><path d="M508.81 249.111a13.38 13.38 0 0 1-3.922 9.463 13.39 13.39 0 0 1-9.467 3.919l-128.289-35.812-150.046 35.812a13.41 13.41 0 0 1-5.124-1.019 13.39 13.39 0 0 1-4.343-2.901 13.38 13.38 0 0 1-2.903-4.341c-.672-1.624-1.019-3.364-1.019-5.121V107.505c0-1.757.347-3.497 1.019-5.121a13.38 13.38 0 0 1 2.903-4.341 13.39 13.39 0 0 1 4.343-2.901 13.4 13.4 0 0 1 5.124-1.019l154.509-35.811 123.826 35.812a13.39 13.39 0 0 1 9.467 3.919 13.38 13.38 0 0 1 3.922 9.462v141.605z" class="B D E G"></path><path d="M516.244 114.569v141.607c0 3.549-1.41 6.952-3.921 9.462a13.39 13.39 0 0 1-9.467 3.92l-124.758-35.813-153.575 35.813a13.39 13.39 0 0 1-9.467-3.92c-2.511-2.51-3.921-5.913-3.921-9.462V114.569c0-1.757.346-3.497 1.019-5.12a13.36 13.36 0 0 1 2.903-4.341 13.39 13.39 0 0 1 4.343-2.9 13.4 13.4 0 0 1 5.123-1.017l153.575-35.812 124.758 35.812a13.4 13.4 0 0 1 5.123 1.017 13.38 13.38 0 0 1 7.246 7.24c.673 1.624 1.02 3.364 1.019 5.121z" class="H"></path><path d="M516.246 114.569v141.607a13.38 13.38 0 0 1-3.921 9.462c-2.511 2.51-5.917 3.92-9.468 3.92L378.1 233.745V65.379l124.757 35.812c1.758 0 3.499.345 5.124 1.017a13.39 13.39 0 0 1 4.343 2.9c1.244 1.242 2.23 2.717 2.903 4.34a13.37 13.37 0 0 1 1.019 5.121zm-182.497 74.012c-.36-22.56-18.837-27.412-38.643-29.527-11.377-1.165-21.141-3.324-21.274-11.559-.112-7.032 6.15-12.679 19.395-12.892 9.724-.157 18.295 4.311 22.009 9.314l16.793-.27c-6.784-17.43-19.648-23.028-32.224-24.266l-.207-12.937-15.374.245.212 13.172c-14.794 2.453-28.468 10.874-28.204 27.375.339 21.214 18.301 26.077 37.647 28.054 12.609 1.17 21.992 4.653 22.136 13.573.165 10.291-10.301 14.378-21.544 14.558-10.813.174-21.203-3.722-26.013-12.768l-17.163.275c4.455 18.462 18.87 26.277 34.727 28.022l.152 9.535 15.376-.245-.151-9.359c18.044-2.115 32.65-11.554 32.35-30.3z" fill="#00c98d"></path><path d="M344.862 188.581c-.359-22.562-18.836-27.411-38.643-29.527-11.377-1.165-21.143-3.324-21.273-11.559-.113-7.032 6.148-12.683 19.393-12.894 9.724-.155 18.296 4.314 22.011 9.316l16.792-.27c-6.784-17.432-19.648-23.029-32.224-24.267l-.207-12.936-15.375.246.21 13.171c-14.793 2.453-28.467 10.874-28.204 27.372.339 21.217 18.303 26.08 37.648 28.057 12.608 1.17 21.993 4.653 22.137 13.573.165 10.293-10.302 14.377-21.544 14.558-10.814.173-21.207-3.722-26.014-12.766l-17.163.273c4.455 18.465 18.87 26.276 34.727 28.022l.153 9.535 15.374-.245-.15-9.359c18.044-2.115 32.652-11.554 32.352-30.3z" class="B D E G"></path><path d="M559.339 59.115a9.67 9.67 0 0 1 1.489 3.458c.264 1.239.281 2.518.051 3.764s-.703 2.434-1.393 3.497-1.582 1.98-2.626 2.698l-110.426 75.961a9.63 9.63 0 0 1-3.458 1.489c-1.24.265-2.52.283-3.766.053s-2.436-.703-3.499-1.393-1.981-1.581-2.699-2.625l-36.178-52.536a9.64 9.64 0 0 1-1.541-7.222c.466-2.516 1.912-4.745 4.021-6.196L509.739 4.101c2.109-1.45 4.707-2.004 7.225-1.539s4.746 1.909 6.198 4.017l36.177 52.536z" class="F"></path><path d="M558.484 62.016c-.158 1.335-.599 2.621-1.294 3.772s-1.628 2.14-2.736 2.902l-108.157 74.398c-1.022.705-2.173 1.2-3.387 1.46a9.46 9.46 0 0 1-7.116-1.311 9.46 9.46 0 0 1-2.644-2.57L397.718 89.21a9.45 9.45 0 0 1-1.51-7.075c.455-2.465 1.871-4.649 3.936-6.071l45.716-31.446 62.442-42.953c1.023-.703 2.174-1.199 3.389-1.457s2.467-.276 3.688-.051 2.385.689 3.426 1.364a9.45 9.45 0 0 1 2.644 2.571l35.434 51.457c1.303 1.889 1.872 4.188 1.601 6.467z" class="C"></path><path d="M455.66 53.33a2.48 2.48 0 0 1 .385.894 2.49 2.49 0 0 1 .013.973 2.51 2.51 0 0 1-.36.904c-.178.275-.41.511-.68.697l-45.21 31.101a2.5 2.5 0 0 1-1.868.398c-.651-.12-1.227-.494-1.602-1.038a2.49 2.49 0 0 1-.398-1.866c.12-.65.494-1.226 1.039-1.601l45.21-31.101a2.5 2.5 0 0 1 3.47.64h.001zm5.061 7.354c.374.545.517 1.216.397 1.866a2.49 2.49 0 0 1-1.038 1.601l-45.211 31.1c-.545.375-1.216.518-1.867.398a2.49 2.49 0 0 1-1.601-1.038 2.48 2.48 0 0 1-.385-.893 2.49 2.49 0 0 1-.014-.973 2.51 2.51 0 0 1 .36-.904 2.5 2.5 0 0 1 .679-.697l45.212-31.101a2.49 2.49 0 0 1 1.866-.398c.65.12 1.227.493 1.602 1.038zm5.063 7.349c.374.545.517 1.216.397 1.866a2.5 2.5 0 0 1-1.038 1.601l-45.211 31.101c-.545.375-1.216.518-1.867.398a2.49 2.49 0 0 1-1.601-1.038c-.186-.27-.317-.573-.386-.893a2.49 2.49 0 0 1-.013-.973 2.47 2.47 0 0 1 .36-.904 2.49 2.49 0 0 1 .678-.697l45.21-31.101c.545-.375 1.217-.518 1.868-.398s1.228.494 1.603 1.039zm53.98 8.033c.375.545.518 1.216.398 1.866s-.494 1.226-1.039 1.601l-78.089 53.718c-.545.375-1.217.518-1.867.398a2.49 2.49 0 0 1-1.602-1.038c-.375-.544-.519-1.216-.399-1.866a2.5 2.5 0 0 1 1.038-1.602l78.089-53.719c.27-.186.574-.317.895-.385a2.5 2.5 0 0 1 .974-.013c.322.06.629.182.904.361a2.5 2.5 0 0 1 .698.679z" fill="#f8f4f5"></path><path opacity=".2" d="M558.486 62.016c-45.654-10.495-84.421-15.272-112.625-17.398l62.443-42.953a9.46 9.46 0 0 1 3.388-1.457c1.214-.259 2.467-.276 3.688-.051a9.46 9.46 0 0 1 3.427 1.364 9.45 9.45 0 0 1 2.644 2.571l35.433 51.457a9.43 9.43 0 0 1 1.602 6.467z" class="B"></path><path d="M410.961 117.337l66.34 20.203-30.139 35.536" fill="#00c98d"></path><g class="E"><path d="M399.408 113.91l101.518 30.105" stroke="#fff" stroke-width="4.224" stroke-linecap="round"></path><path d="M295.656 4.961c5.574 2.324 10.335 6.247 13.678 11.275s5.121 10.934 5.107 16.971-1.82 11.934-5.188 16.946a30.53 30.53 0 0 1-13.732 11.21c-5.586 2.297-11.728 2.887-17.649 1.695a30.54 30.54 0 0 1-15.617-8.391c-4.261-4.279-7.157-9.725-8.321-15.649a30.51 30.51 0 0 1 1.78-17.632c1.544-3.7 3.801-7.059 6.644-9.887a30.53 30.53 0 0 1 9.923-6.593c3.709-1.525 7.682-2.305 11.693-2.296s7.98.809 11.682 2.352z" class="B D G"></path></g><path d="M291.8 14.206a20.52 20.52 0 0 1 9.191 7.576c2.246 3.378 3.44 7.346 3.43 11.403s-1.223 8.019-3.486 11.386a20.52 20.52 0 0 1-9.227 7.532 20.53 20.53 0 0 1-11.859 1.139c-3.978-.801-7.63-2.763-10.493-5.638s-4.808-6.534-5.59-10.515-.366-8.103 1.196-11.847c1.037-2.486 2.554-4.744 4.464-6.644a20.52 20.52 0 0 1 6.668-4.43 20.53 20.53 0 0 1 7.857-1.542c2.695.007 5.362.544 7.849 1.581z" class="C"></path><path d="M295.148 26.826c-5.894-2.457-9.242 1.783-12.03 6.678-1.588 2.817-3.253 5.104-5.404 4.208-1.838-.766-2.595-3.028-1.152-6.485 1.058-2.538 3.186-4.255 4.905-4.652l1.828-4.383c-5.29-.213-8.196 2.49-9.939 5.61l-3.381-1.409-1.674 4.013 3.442 1.435c-1.037 4.112-.398 8.608 3.913 10.405 5.543 2.311 8.835-1.796 11.535-6.586 1.73-3.137 3.694-5.175 6.025-4.203 2.689 1.123 2.566 4.296 1.342 7.23-1.177 2.822-3.362 5.074-6.254 5.299l-1.869 4.479c5.294.933 8.951-1.921 11.196-5.834l2.493 1.039 1.674-4.013-2.445-1.019c1.491-4.916.693-9.769-4.205-11.811z" class="F"></path><g class="B"><path d="M294.08 24.739c-5.895-2.457-9.242 1.784-12.03 6.679-1.588 2.817-3.253 5.105-5.405 4.208-1.837-.767-2.595-3.028-1.152-6.485 1.059-2.538 3.19-4.254 4.905-4.652l1.828-4.384c-5.289-.213-8.196 2.489-9.939 5.61l-3.38-1.409-1.675 4.013 3.442 1.435c-1.033 4.112-.397 8.608 3.914 10.406 5.543 2.31 8.835-1.796 11.536-6.588 1.729-3.135 3.693-5.174 6.024-4.203 2.689 1.123 2.566 4.295 1.342 7.23-1.178 2.823-3.363 5.074-6.253 5.299l-1.87 4.48c5.295.933 8.951-1.92 11.196-5.833l2.492 1.038 1.675-4.013-2.446-1.019c1.492-4.916.694-9.77-4.204-11.812z"></path><path d="M260.861 105.738c1.371 6.778.699 13.809-1.929 20.205a34.96 34.96 0 0 1-12.834 15.729 34.99 34.99 0 0 1-19.414 5.951c-6.918.021-13.687-2.009-19.451-5.833a34.97 34.97 0 0 1-12.93-15.65 34.94 34.94 0 0 1-2.052-20.192 34.95 34.95 0 0 1 9.518-17.929 34.98 34.98 0 0 1 17.879-9.622c4.503-.91 9.14-.924 13.648-.042s8.798 2.642 12.625 5.182a34.96 34.96 0 0 1 9.679 9.616c2.564 3.81 4.352 8.086 5.261 12.586z" class="D E G"></path></g><path d="M249.614 108.01c.921 4.554.47 9.279-1.296 13.576s-4.766 7.976-8.623 10.569-8.396 3.985-13.044 3.999a23.51 23.51 0 0 1-13.07-3.918 23.5 23.5 0 0 1-8.688-10.515 23.48 23.48 0 0 1-1.379-13.568c.893-4.56 3.118-8.752 6.395-12.047a23.5 23.5 0 0 1 12.013-6.466c6.11-1.234 12.459.009 17.652 3.454s8.804 8.81 10.04 14.916z" class="C"></path><path d="M239.777 119.286c-1.448-7.165-7.621-7.62-14.057-7.123-3.691.301-6.93.19-7.458-2.425-.452-2.234 1.209-4.401 5.416-5.254 3.089-.624 6.083.293 7.562 1.667l5.335-1.077c-3.19-5.154-7.621-6.177-11.701-5.828l-.831-4.109-4.882.988.845 4.184c-4.568 1.654-8.426 5.145-7.369 10.385 1.362 6.739 7.373 7.227 13.653 6.714 4.085-.371 7.278.184 7.853 3.018.661 3.269-2.431 5.188-6.002 5.909-3.435.694-6.975.067-9.042-2.531l-5.452 1.101c2.511 5.619 7.565 7.257 12.719 6.876l.612 3.03 4.885-.988-.601-2.972c5.625-1.74 9.72-5.61 8.515-11.565z" class="F"></path><g class="B"><path d="M241.072 116.93c-1.448-7.165-7.619-7.62-14.055-7.124-3.692.302-6.932.19-7.458-2.424-.452-2.234 1.209-4.401 5.416-5.254 3.088-.624 6.083.293 7.563 1.667l5.333-1.078c-3.19-5.152-7.621-6.175-11.7-5.827l-.832-4.109-4.882.988.846 4.183c-4.568 1.655-8.427 5.146-7.369 10.386 1.362 6.738 7.372 7.226 13.653 6.714 4.085-.371 7.281.184 7.853 3.018.661 3.269-2.431 5.189-6.002 5.909-3.434.694-6.975.068-9.042-2.53l-5.451 1.1c2.51 5.619 7.564 7.257 12.719 6.876l.612 3.028 4.885-.985-.602-2.973c5.622-1.74 9.716-5.61 8.513-11.565z"></path><path d="M381.142 17.652a17.79 17.79 0 0 1-.983 10.285 17.8 17.8 0 0 1-6.534 8.006c-2.923 1.964-6.362 3.018-9.884 3.029s-6.967-1.023-9.901-2.97-5.224-4.719-6.581-7.967a17.78 17.78 0 0 1-1.044-10.279c.676-3.454 2.363-6.63 4.845-9.127a17.81 17.81 0 0 1 9.102-4.898c2.292-.463 4.653-.47 6.948-.021a17.81 17.81 0 0 1 6.427 2.638c1.948 1.293 3.622 2.956 4.927 4.896a17.79 17.79 0 0 1 2.678 6.408z" class="D E G"></path></g><path d="M375.415 18.809c.468 2.318.239 4.723-.66 6.91s-2.427 4.06-4.391 5.379-4.274 2.028-6.64 2.035a11.97 11.97 0 0 1-6.653-1.995 11.96 11.96 0 0 1-4.422-5.353c-.912-2.182-1.156-4.586-.702-6.906a11.96 11.96 0 0 1 3.256-6.132c1.668-1.677 3.796-2.823 6.115-3.291 1.54-.311 3.127-.316 4.669-.014s3.009.904 4.318 1.773 2.434 1.986 3.311 3.29a11.95 11.95 0 0 1 1.799 4.306z" class="C"></path><path d="M370.41 24.547c-.739-3.648-3.88-3.88-7.156-3.627-1.88.153-3.529.096-3.798-1.235-.229-1.137.616-2.241 2.758-2.674 1.572-.317 3.097.149 3.85.849l2.714-.548c-1.624-2.623-3.879-3.143-5.955-2.967l-.423-2.092-2.484.501.429 2.13c-2.325.842-4.289 2.619-3.749 5.288.693 3.43 3.752 3.678 6.949 3.418 2.08-.189 3.707.094 3.999 1.536.337 1.664-1.237 2.641-3.055 3.009-1.749.353-3.55.035-4.604-1.287l-2.776.56c1.279 2.86 3.851 3.694 6.476 3.499l.314 1.542 2.486-.502-.306-1.513c2.859-.886 4.944-2.856 4.331-5.887z" class="F"></path><path d="M371.068 23.347c-.737-3.648-3.879-3.879-7.155-3.627-1.88.153-3.529.097-3.798-1.235-.23-1.137.616-2.241 2.757-2.674 1.572-.318 3.097.15 3.85.849l2.715-.548c-1.624-2.623-3.88-3.143-5.956-2.968l-.421-2.09-2.485.502.43 2.129c-2.326.842-4.29 2.619-3.751 5.287.694 3.43 3.753 3.679 6.95 3.418 2.08-.189 3.707.093 3.999 1.536.337 1.665-1.238 2.642-3.055 3.009-1.748.353-3.549.033-4.603-1.289l-2.775.56c1.278 2.86 3.851 3.694 6.475 3.5l.312 1.542 2.486-.502-.305-1.514c2.858-.885 4.943-2.855 4.33-5.886z" class="B"></path><path d="M200.199 254.824l-37.084 18.98-37.094-18.98 7.667-3.923 29.428-15.056 37.083 18.979z" class="H"></path><path d="M200.197 143.98v110.845l-37.084 18.98V132.133h13.935l23.149 11.847z" class="C"></path><path d="M163.115 138.719v135.083l-37.094-18.979V143.976l7.668-3.922 2.606-1.335h26.82z" class="F"></path><path d="M200.199 143.979l-37.084 18.981-37.094-18.981 7.668-3.923 2.606-1.335L163.113 125l37.086 18.979z" class="B D E I"></path><path d="M142.177 286.753l-37.084 18.979L68 286.753l7.668-3.925 29.425-15.055 37.084 18.98z" class="H"></path><path d="M142.178 201.269v85.487l-37.084 18.98V189.422h13.935l23.149 11.847z" class="C"></path><path d="M105.093 197.344v108.39L68 286.754v-85.487l7.668-3.923h29.425z" class="F"></path><path d="M142.177 201.267l-37.084 18.98L68 201.267l7.668-3.923 29.425-15.055 37.084 18.978z" class="B D E I"></path><path d="M76.177 272.974v46.558l-37.085 18.98v-84.517l37.085 18.979z" class="C"></path><path d="M39.092 253.998v84.516L2 319.535v-46.558l7.667-3.924 29.425-15.055z" class="F"></path><path d="M76.177 272.975l-37.085 18.978L2 272.973l7.667-3.923 29.424-15.055 37.085 18.98z" class="B D E I"></path></svg> 