<?xml version="1.0" encoding="utf-8"?><!-- Uploaded to: SVG Repo, www.svgrepo.com, Generator: SVG Repo Mixer Tools -->
<svg width="800px" height="800px" viewBox="-0.5 0 25 25" fill="none" xmlns="http://www.w3.org/2000/svg">
<path d="M18.92 7.96997C18.9781 7.58275 19.0048 7.19156 19 6.80005C17.8347 5.58901 16.437 4.62559 14.8905 3.96753C13.344 3.30947 11.6806 2.97021 10 2.97021C8.31935 2.97021 6.65602 3.30947 5.10956 3.96753C3.5631 4.62559 2.16532 5.58901 1 6.80005C1 20.86 10 22.97 10 22.97C10.6656 22.6883 11.3077 22.3539 11.92 21.97" stroke="#000000" stroke-width="1.5" stroke-linecap="round" stroke-linejoin="round"/>
<path d="M21 10.9199H15C13.8954 10.9199 13 11.8154 13 12.9199V17.9199C13 19.0245 13.8954 19.9199 15 19.9199H21C22.1046 19.9199 23 19.0245 23 17.9199V12.9199C23 11.8154 22.1046 10.9199 21 10.9199Z" stroke="#000000" stroke-width="1.5" stroke-linecap="round" stroke-linejoin="round"/>
<path d="M13 13.97H14.69C15.0878 13.97 15.4694 14.1281 15.7507 14.4094C16.032 14.6907 16.19 15.0721 16.19 15.47C16.19 15.8678 16.032 16.2492 15.7507 16.5305C15.4694 16.8118 15.0878 16.97 14.69 16.97H13" stroke="#000000" stroke-width="1.5" stroke-linecap="round" stroke-linejoin="round"/>
</svg>